<?xml version="1.0" encoding="UTF-8"?>
<svg version="1.1" xmlns="http://www.w3.org/2000/svg" width="500" height="500">
<path d="M0 0 C1.35279808 -0.01058945 1.35279808 -0.01058945 2.73292542 -0.02139282 C40.65979482 -0.25083645 40.65979482 -0.25083645 57.3046875 3.203125 C58.79524658 3.50911621 58.79524658 3.50911621 60.31591797 3.82128906 C95.47946532 11.25775421 129.30403139 24.71563291 158.3046875 46.203125 C158.89217773 46.63512207 159.47966797 47.06711914 160.08496094 47.51220703 C166.6914026 52.39579234 172.983195 57.5447646 179.03125 63.11328125 C181.15098962 65.06183915 183.30952219 66.95069833 185.4921875 68.828125 C230.06766384 107.76453505 257.32239342 168.81153964 262.3046875 227.203125 C262.45463626 230.59276244 262.49162522 233.97841978 262.5078125 237.37109375 C262.51351257 238.32720047 262.51921265 239.28330719 262.52508545 240.26838684 C262.5344846 242.28788161 262.54104906 244.30739137 262.54492188 246.3269043 C262.55451775 249.33737001 262.58554434 252.34711902 262.6171875 255.35742188 C262.71587689 273.261697 260.77222066 290.70635009 256.6171875 308.140625 C256.36372559 309.21634766 256.11026367 310.29207031 255.84912109 311.40039062 C243.18920235 363.19441933 212.55822884 412.35898572 170.3046875 445.203125 C168.83128906 446.38455078 168.83128906 446.38455078 167.328125 447.58984375 C137.14315386 471.59835215 101.68624452 488.00053273 63.9921875 496.015625 C63.07501953 496.21067627 62.15785156 496.40572754 61.21289062 496.60668945 C45.1599823 499.81246317 29.3236274 500.61285204 12.9921875 500.578125 C11.98200562 500.57724884 10.97182373 500.57637268 9.93103027 500.57546997 C-50.41396933 500.40335177 -108.58706558 478.53301655 -153.6953125 438.203125 C-154.22527832 437.72955566 -154.75524414 437.25598633 -155.30126953 436.76806641 C-158.80582081 433.62127361 -162.26252435 430.42801903 -165.6953125 427.203125 C-166.67951172 426.28273438 -166.67951172 426.28273438 -167.68359375 425.34375 C-172.83628182 420.36874083 -177.23579233 414.79533479 -181.6953125 409.203125 C-182.57234855 408.12844237 -183.44996804 407.05423565 -184.328125 405.98046875 C-216.48013713 366.34036904 -237.63127704 313.90028057 -237.8984375 262.47265625 C-237.90895897 261.11562088 -237.90895897 261.11562088 -237.91969299 259.73117065 C-237.937113 256.82593765 -237.94354571 253.92090832 -237.9453125 251.015625 C-237.94598724 250.02414459 -237.94666199 249.03266418 -237.94735718 248.01113892 C-237.93200499 233.8416455 -237.53287814 220.12562964 -234.6953125 206.203125 C-234.3514757 204.34767233 -234.0077296 202.49220286 -233.6640625 200.63671875 C-229.65998822 179.99256205 -222.94507295 160.08271823 -213.6953125 141.203125 C-213.28410156 140.36152832 -212.87289062 139.51993164 -212.44921875 138.65283203 C-206.43441865 126.47821624 -199.77928767 115.11368556 -191.6953125 104.203125 C-191.04731689 103.32188965 -191.04731689 103.32188965 -190.38623047 102.42285156 C-185.50264516 95.8164099 -180.3536729 89.5246175 -174.78515625 83.4765625 C-172.83659835 81.35682288 -170.94773917 79.19829031 -169.0703125 77.015625 C-163.37566885 70.51489024 -157.29331996 64.91379136 -150.546875 59.50390625 C-148.76959114 58.06990599 -147.01058137 56.6125721 -145.28125 55.12109375 C-106.19297754 21.67890509 -51.66416776 0.26971265 0 0 Z M-150.6953125 82.203125 C-151.20336426 82.6892627 -151.71141602 83.17540039 -152.23486328 83.67626953 C-159.26817224 90.44508552 -165.7341034 97.45355318 -171.6953125 105.203125 C-172.11103516 105.73711914 -172.52675781 106.27111328 -172.95507812 106.82128906 C-192.71311902 132.3311152 -210.96563023 164.77754409 -215.6953125 197.203125 C-214.7053125 196.336875 -213.7153125 195.470625 -212.6953125 194.578125 C-210.09064756 192.3560366 -207.46250639 190.17761016 -204.7578125 188.078125 C-203.87802734 187.39363281 -203.87802734 187.39363281 -202.98046875 186.6953125 C-200.6953125 185.203125 -200.6953125 185.203125 -198.85302734 184.56665039 C-195.23935046 183.21461473 -193.20548562 182.03260932 -191.14868164 178.68847656 C-189.70303523 175.46023832 -188.42788058 172.20601674 -187.1953125 168.890625 C-186.25088353 166.51761937 -185.30168474 164.14650635 -184.34765625 161.77734375 C-183.89374512 160.63700684 -183.43983398 159.49666992 -182.97216797 158.32177734 C-175.06769519 139.0155182 -162.16245366 121.95048787 -148.6953125 106.203125 C-147.85742188 105.22214844 -147.01953125 104.24117188 -146.15625 103.23046875 C-141.65571832 98.10357441 -136.91860663 93.57695607 -131.6953125 89.203125 C-130.78523438 88.39359375 -129.87515625 87.5840625 -128.9375 86.75 C-96.88104729 58.43217936 -56.75866471 42.11677452 -14.6953125 36.203125 C-14.01799072 36.1 -13.34066895 35.996875 -12.64282227 35.890625 C-4.65386469 34.81635048 3.44583067 34.95921127 11.4921875 34.953125 C12.29359161 34.95245026 13.09499573 34.95177551 13.92068481 34.95108032 C26.92065229 34.96842983 39.52892139 35.61746398 52.3046875 38.203125 C53.1807666 38.38004883 54.0568457 38.55697266 54.95947266 38.73925781 C100.37445635 48.2201576 145.69486559 71.67395524 175.3046875 108.203125 C176.20427592 109.27877228 177.10403133 110.3542799 178.00390625 111.4296875 C205.42888399 144.56224291 223.82836535 186.16228029 226.92773438 229.33276367 C227.59095386 232.62351787 229.79491268 234.14967288 232.3046875 236.203125 C236.19955569 239.89300013 239.4336672 243.84471347 242.65625 248.1171875 C244.11270616 249.96019127 245.63105777 251.56225419 247.3046875 253.203125 C246.54160145 199.58317339 230.91340933 148.50694734 197.3046875 106.203125 C196.61246094 105.31882812 195.92023438 104.43453125 195.20703125 103.5234375 C186.78557463 92.97751179 177.71503177 82.81725031 167.3046875 74.203125 C166.43457031 73.42195313 165.56445312 72.64078125 164.66796875 71.8359375 C132.31821218 43.01116678 90.76319125 25.30617874 48.3046875 18.203125 C47.62954102 18.08453125 46.95439453 17.9659375 46.25878906 17.84375 C-24.91592663 5.84440004 -99.38226931 32.92027145 -150.6953125 82.203125 Z M-221.6953125 256.203125 C-223.61095504 297.77966309 -207.74533994 341.5168108 -185.6953125 376.203125 C-185.31858398 376.79609375 -184.94185547 377.3890625 -184.55371094 378 C-183.63137311 379.42128025 -182.66752013 380.81548062 -181.6953125 382.203125 C-181.3653125 382.203125 -181.0353125 382.203125 -180.6953125 382.203125 C-180.22333164 360.92608987 -180.29236991 342.89258665 -190.45751953 323.65942383 C-191.73477796 321.12480902 -192.78085337 318.56960385 -193.80078125 315.921875 C-195.26952514 312.13753388 -196.99022467 308.8135227 -199.1953125 305.390625 C-204.10700989 297.16589832 -206.46202815 288.94347615 -207.4453125 279.453125 C-208.24944195 273.37829249 -210.41364579 270.50807958 -214.71875 266.28125 C-217.60929817 263.24217563 -219.02753079 260.02512476 -220.6953125 256.203125 C-221.0253125 256.203125 -221.3553125 256.203125 -221.6953125 256.203125 Z M-79.8046875 450.22265625 C-80.55878906 450.66802734 -81.31289062 451.11339844 -82.08984375 451.57226562 C-82.86714844 452.04857422 -83.64445313 452.52488281 -84.4453125 453.015625 C-85.63447266 453.71268555 -85.63447266 453.71268555 -86.84765625 454.42382812 C-89.85022475 456.19794499 -89.85022475 456.19794499 -92.6953125 458.203125 C-92.6953125 458.863125 -92.6953125 459.523125 -92.6953125 460.203125 C-71.22120698 470.20256477 -49.23759266 477.92888677 -25.82226562 481.84472656 C-23.92632305 482.16419898 -22.03674901 482.52095545 -20.1484375 482.8828125 C-6.84851185 485.11989677 6.86268666 484.36562064 20.3046875 484.203125 C19.3146875 475.293125 19.3146875 475.293125 18.3046875 466.203125 C16.81324219 466.17734375 15.32179688 466.1515625 13.78515625 466.125 C-15.40346902 465.41180668 -42.64198265 460.51641345 -69.79858398 449.87988281 C-70.42450439 449.65655273 -71.0504248 449.43322266 -71.6953125 449.203125 C-72.35055908 448.96650146 -73.00580566 448.72987793 -73.6809082 448.48608398 C-76.37410926 448.1077759 -77.48671096 448.8429469 -79.8046875 450.22265625 Z " fill="#393939" transform="translate(237.6953125,-0.203125)"/>
<path d="M0 0 C5.67549553 2.04317839 9.29873721 5.59747441 12 11 C12.17980687 16.12449572 11.85647612 21.03309319 11.21875 26.1171875 C10.96153124 28.01519323 10.96153124 28.01519323 11 30 C12.2065625 30.3403125 12.2065625 30.3403125 13.4375 30.6875 C22.15263899 33.89834068 29.14370109 37.95782922 33.21875 46.578125 C35.49699308 52.40391801 36.49901923 57.78783842 37 64 C38.04490735 65.2678956 38.04490735 65.2678956 40.375 65.125 C43.11093048 65.11343738 43.11093048 65.11343738 46 64 C46.79953138 60.71303767 47.09658936 59.28976808 46 56 C45.4197216 51.79849058 45.00269283 47.74361422 47.1640625 43.96484375 C48.68692728 42.18816817 50.29424523 40.60016043 52 39 C52.804375 38.030625 53.60875 37.06125 54.4375 36.0625 C57 34 57 34 60.4375 33.4375 C65.45868202 34.23031821 68.47898093 36.2691852 71.8125 40.0625 C75.74261555 46.47479379 74.85389995 56.23045205 73.24609375 63.328125 C71.62618917 68.07984512 70.49039692 71.38348026 66 74 C63.25 73.6875 63.25 73.6875 61 73 C61 72.34 61 71.68 61 71 C61.66 70.67 62.32 70.34 63 70 C61.60804085 67.2160817 59.84424221 67.02101003 57 66 C57 64.68 57 63.36 57 62 C57.94875 62.04125 58.8975 62.0825 59.875 62.125 C63.10244856 62.34973818 63.10244856 62.34973818 65 60 C65.99 60 66.98 60 68 60 C68.99 62.475 68.99 62.475 70 65 C70.33 63.35 70.66 61.7 71 60 C70.34 60 69.68 60 69 60 C68.89042969 59.33613281 68.78085937 58.67226562 68.66796875 57.98828125 C67.78863977 53.09120522 67.00548286 49.09838572 64 45 C67.875 46.75 67.875 46.75 69 49 C68.67039784 43.98464948 68.67039784 43.98464948 66 40 C63.42938689 39.35232207 63.42938689 39.35232207 61 39 C60.67 40.32 60.34 41.64 60 43 C59.67 42.34 59.34 41.68 59 41 C58.01 40.67 57.02 40.34 56 40 C56.474375 41.051875 56.94875 42.10375 57.4375 43.1875 C59.76327934 48.64707591 60.30553784 54.14667612 61 60 C59.68 60 58.36 60 57 60 C56.67 59.34 56.34 58.68 56 58 C55.01 58.99 55.01 58.99 54 60 C54 65.5572074 55.76528623 69.13968058 59.25 73.4453125 C61.0821822 75.3258888 61.0821822 75.3258888 64.625 75.8125 C68.0301116 75.25614068 68.0301116 75.25614068 70.25 73.125 C72.25686682 69.54130925 73.33894818 66.0663186 74.38671875 62.109375 C75 60 75 60 76 59 C89.511468 57.99485503 89.511468 57.99485503 95 62 C95.66 62.99 96.32 63.98 97 65 C99.63379708 61.34666857 101.46884894 58.51478398 102 54 C106.2742558 55.5830577 108.26531794 58.50568404 111 62 C111.99 61.01 112.98 60.02 114 59 C114.32685791 59.44279297 114.65371582 59.88558594 114.99047852 60.34179688 C123.54805515 72.0354933 123.54805515 72.0354933 133 83 C133.91458984 84.00933594 133.91458984 84.00933594 134.84765625 85.0390625 C145.58763794 96.44095161 159.10331533 100.56830301 174 104 C173.67 104.99 173.34 105.98 173 107 C164.01900827 111.27061304 153.58655079 112.69814789 143.890625 114.53515625 C134.25125624 116.52231541 126.63930592 120.14879082 119.375 126.875 C118.72273437 127.47054687 118.07046875 128.06609375 117.3984375 128.6796875 C116.93695313 129.11539063 116.47546875 129.55109375 116 130 C118.24418635 128.88590274 120.47577694 127.75281632 122.69921875 126.59765625 C132.94945041 121.33185097 141.98331563 117.72746037 153.62304688 118.16625977 C162.03329401 118.4549622 168.26666542 117.71346334 176.04296875 114.1796875 C180.59976095 112.36178625 185.13348229 112.10727795 190 112 C189.29875 112.680625 188.5975 113.36125 187.875 114.0625 C179.22125042 122.69087322 179.22125042 122.69087322 176.5625 134.25 C176.6757974 140.58049219 177.86759292 144.25926903 182 149 C182.50789063 149.60328125 183.01578125 150.2065625 183.5390625 150.828125 C187.99480143 155.68509161 193.25768875 158.84577269 199 162 C198.2265625 161.071875 198.2265625 161.071875 197.4375 160.125 C190.14435782 150.77481772 184.29931371 143.10324849 184.65234375 130.80859375 C185.13466902 126.91205587 186.30504798 124.8367916 189 122 C196.7120167 116.17664045 204.67070118 115.92963362 214 117 C220.60339594 118.3435533 227.02777234 120.37107004 233.47949219 122.29541016 C236.87975806 123.24593004 240.27531088 123.87546437 243.75 124.5 C255.31460697 126.90929312 264.51839097 134.16912995 271.26464844 143.80664062 C278.2613106 154.52146694 284.84245584 165.73039786 283 179 C281.62513682 182.21602611 279.87612496 185.05850408 278 188 C278 188.33 278 188.66 278 189 C278.99 188.67 279.98 188.34 281 188 C279.88586382 208.79720861 269.06123887 230.56604218 260 249 C255.79042265 247.49195361 254.54216668 245.01953889 252.4375 241.1875 C252.10524414 240.58945557 251.77298828 239.99141113 251.43066406 239.37524414 C249.28394409 235.47517454 247.22785151 231.52861978 245.17578125 227.578125 C244.69117432 226.64589111 244.20656738 225.71365723 243.70727539 224.75317383 C242.75065624 222.90484267 241.80040276 221.05320015 240.85717773 219.19799805 C236.43336893 210.59753409 231.98008539 205.14465479 223 201 C226.92875325 197.07124675 231.74911309 197.71595761 237.00805664 197.66992188 C243.25308806 197.76017886 248.38853397 199.3867601 254 202 C254 201.67 254 201.34 254 201 C245.73777448 195.01538418 237.47069183 190.03052692 227.125 189.6875 C224.3359375 189.53515625 224.3359375 189.53515625 222 189 C220.51300883 187.32604795 219.81596205 185.78561759 218.96875 183.72265625 C217.2106009 180.59627015 214.284164 180.073669 211 179 C212.2375 180.3303125 212.2375 180.3303125 213.5 181.6875 C215.46099476 184.01307407 215.97259478 184.74787194 216.3125 187.875 C216.209375 188.57625 216.10625 189.2775 216 190 C213.625 189.6875 213.625 189.6875 211 189 C210.34 188.01 209.68 187.02 209 186 C207.75199029 188.49601942 207.89401548 190.33794683 207.8125 193.125 C207.28905477 199.28554768 205.24716899 202.62677348 201 207 C200.51789063 207.50917969 200.03578125 208.01835937 199.5390625 208.54296875 C188.56743494 218.92981413 171.63239997 226.01379593 157 229 C162.36496254 229.20984208 166.89168795 228.51241104 172.0625 227.125 C172.74376953 226.95097656 173.42503906 226.77695312 174.12695312 226.59765625 C178.14357955 225.55587994 182.07958498 224.35777244 186 223 C183.77426823 231.16101648 176.41110832 235.68754363 169.48046875 239.671875 C167.30443473 240.83699558 165.11335369 241.89967786 162.875 242.9375 C158.99395629 244.80353718 156.07295185 247.3710413 152.95703125 250.31640625 C150.77936217 252.18981019 148.49355789 253.58310787 146 255 C149.11003729 253.97535583 152.21163356 252.92704022 155.3125 251.875 C156.17423828 251.59140625 157.03597656 251.3078125 157.92382812 251.015625 C170.62968849 246.67012629 179.41529938 240.29275702 188.5625 230.6875 C190.03413057 229.16576317 191.50939948 227.64767937 192.98680115 226.13154602 C194.30698153 224.7732216 195.61776345 223.40578111 196.92797852 222.0378418 C200.07781256 218.93996684 201.98845461 218.82021454 206.3125 218.75 C210.77911998 218.81979094 213.59096974 218.88317233 217 222 C223.5430767 228.88649785 229.03733894 239.19694822 229.75 248.75 C229.22956554 255.37934368 225.16445466 261.08722611 220.3125 265.375 C212.81764841 269.05171965 205.17393257 271.39201326 197 273 C198.02480469 273.58007812 199.04960937 274.16015625 200.10546875 274.7578125 C201.46649652 275.54626996 202.82715411 276.33536666 204.1875 277.125 C204.86103516 277.50398438 205.53457031 277.88296875 206.22851562 278.2734375 C210.82863684 280.96619138 213.99410852 283.55999999 217 288 C218.74334428 295.31988033 216.52872619 302.56710092 213 309 C209.47834651 314.50982749 205.55583593 318.70165693 200.19921875 322.42578125 C197.69561079 324.21788428 195.40282847 326.18706795 193.0625 328.1875 C173.62339407 344.08980553 150.49784993 355.45664057 127 364 C125.89914062 364.40089844 124.79828125 364.80179687 123.6640625 365.21484375 C120.02451719 366.28749567 117.6500986 365.99548144 114 365 C110.97151536 362.93805301 109.3508978 361.46739079 108.484375 357.84375 C108.16572644 353.49854236 108.16572644 353.49854236 109 351 C113.34901744 346.50850305 117.72048178 344.67558452 123.625 342.875 C124.42405762 342.62274658 125.22311523 342.37049316 126.04638672 342.1105957 C128.35935779 341.38956975 130.67816212 340.69184494 133 340 C134.0828125 339.66613281 135.165625 339.33226562 136.28125 338.98828125 C144.43024133 336.69357902 152.58537568 336.30967526 161 336 C153.41625529 331.59254757 146.36971612 331.4105819 137.75 331.375 C107.45655891 331.05845412 107.45655891 331.05845412 97 322.5625 C93.12939917 317.60329269 92.74718087 313.54183559 92.5390625 307.40234375 C93.17528232 304.08645231 94.32369697 303.02909249 97 301 C100.1015625 299.91015625 100.1015625 299.91015625 103.625 299.0625 C109.90497709 297.41367756 115.35120649 295.17581939 121 292 C119.79730469 292.32484375 119.79730469 292.32484375 118.5703125 292.65625 C108.44242352 295.13654934 93.78203696 298.49750748 84.1875 292.875 C78.46576672 288.55191263 75.28593688 283.26368292 73.25 276.5 C73.04246094 275.86191406 72.83492187 275.22382813 72.62109375 274.56640625 C71.4066813 270.73513086 70.62421911 266.96316295 70 263 C69.75070354 267.5345109 69.5704415 272.06495343 69.45068359 276.60473633 C69.40072769 278.14450605 69.33272748 279.68380935 69.24560547 281.22192383 C68.56274744 290.58455558 68.56274744 290.58455558 72.18041992 298.9230957 C74.80447726 301.31577298 74.80447726 301.31577298 77.58422852 303.20996094 C82.11868561 306.56990429 83.88631606 311.57204495 85 317 C85.99842829 326.69901768 85.99842829 326.69901768 82.9375 330.6875 C79.05515331 332.42216554 77.23628196 332.7639197 73 332 C60.87808992 325.890245 55.83389163 315.64619958 51.48364258 303.4206543 C49.19609156 297.05298056 46.28086154 291.94892762 41.3125 287.25 C37.73055374 283.84446651 36.79385677 281.92218682 36.5625 276.9375 C36.65464739 270.52906786 38.58706772 266.59393145 43 262 C46.19737704 259.42592116 49.50438024 257.14849357 53 255 C52.39639648 254.96559814 51.79279297 254.93119629 51.17089844 254.89575195 C32.00785735 253.71769615 18.75910333 250.4538347 5.125 236.125 C1.55507761 231.84276916 -0.2587153 227.24826462 -2 222 C-2.27585938 221.19949219 -2.55171875 220.39898437 -2.8359375 219.57421875 C-3.57783812 217.38891743 -4.29285617 215.19674857 -5 213 C-5.391875 211.824375 -5.78375 210.64875 -6.1875 209.4375 C-6.455625 208.633125 -6.72375 207.82875 -7 207 C-7.33 208.65 -7.66 210.3 -8 212 C-11.16361421 206.57666136 -12.08079005 200.12806633 -13 194 C-13.02721176 195.89575251 -13.04649136 197.79161979 -13.0625 199.6875 C-13.07410156 200.74324219 -13.08570313 201.79898438 -13.09765625 202.88671875 C-13.00865425 205.72410262 -12.64939838 208.2438919 -12 211 C-15.3 211 -18.6 211 -22 211 C-19.9271875 211.5878125 -19.9271875 211.5878125 -17.8125 212.1875 C-13.38085151 213.7087085 -10.82873875 215.12058686 -8 219 C-1.94811649 232.43723288 -0.84087231 247.12759677 -5.7421875 261.12890625 C-9.64885113 270.04629062 -16.88686174 277.49465444 -25.875 281.3125 C-30.80942243 283.09778016 -35.82766489 284.16362241 -41 285 C-30.82976544 288.1606744 -18.16546321 286.4306632 -8.69921875 281.8984375 C-8.13847656 281.60195313 -7.57773438 281.30546875 -7 281 C-7.27849703 293.25386914 -17.12574873 303.38393385 -25.43261719 311.53076172 C-38.31920903 323.61043612 -60.98802754 339.08089965 -79.0625 340.1875 C-79.701875 340.125625 -80.34125 340.06375 -81 340 C-80.6875 338.0625 -80.6875 338.0625 -80 336 C-79.01 335.67 -78.02 335.34 -77 335 C-75.92575864 333.23439069 -75.92575864 333.23439069 -75 331 C-74.27103516 329.66388672 -74.27103516 329.66388672 -73.52734375 328.30078125 C-70.18875122 322.02553976 -68.23739955 317.12198637 -68 310 C-68.25652344 310.61746094 -68.51304687 311.23492187 -68.77734375 311.87109375 C-72.77850366 320.72214447 -79.22655538 328.51126089 -88 333 C-91.83779787 333 -94.21494859 330.43955336 -97 328 C-98.703125 325.51953125 -98.703125 325.51953125 -100.25 322.8125 C-104.47252802 315.92214382 -109.70039233 310.50770183 -116.125 305.625 C-128.15466616 294.64139177 -131.40784807 277.41279528 -134 262 C-134.17490967 260.97318115 -134.34981934 259.9463623 -134.5300293 258.88842773 C-135.07936592 254.34334491 -135.12507328 249.91971995 -135.09765625 245.34765625 C-135.0962413 244.44752304 -135.09482635 243.54738983 -135.09336853 242.61997986 C-135.0878066 239.76745163 -135.07526127 236.91500419 -135.0625 234.0625 C-135.05748008 232.11914176 -135.05291803 230.17578229 -135.04882812 228.23242188 C-135.03784966 223.4882505 -135.02061153 218.74413891 -135 214 C-134.06969971 214.31735107 -133.13939941 214.63470215 -132.1809082 214.96166992 C-129.07678229 216.03743125 -129.07678229 216.03743125 -126.10546875 216.61328125 C-118.73063567 218.38047686 -115.18901897 221.2263785 -111.07836914 227.59277344 C-108.63669423 231.61618322 -106.62502558 235.80239824 -104.625 240.0625 C-99.45232812 250.814012 -91.00259277 258.39384364 -82.09375 266.16015625 C-78.7446404 269.10312383 -76.64883294 271.2962286 -74.875 275.4375 C-74.54242188 276.19933594 -74.20984375 276.96117187 -73.8671875 277.74609375 C-73 280 -73 280 -72 284 C-72.66 279.71 -73.32 275.42 -74 271 C-69.77208543 274.38233166 -67.72987887 276.55130851 -65 281 C-65.20496094 280.3709375 -65.40992188 279.741875 -65.62109375 279.09375 C-67.30153847 273.75492085 -68.66896807 268.60807034 -69 263 C-69.06445312 262.01 -69.12890625 261.02 -69.1953125 260 C-69.56550633 249.53585442 -67.73463873 241.77338808 -60.8125 233.75 C-55.05692204 227.79562741 -48.76088079 222.14130889 -41 219 C-40.01 219 -39.02 219 -38 219 C-37.93683594 218.36835938 -37.87367188 217.73671875 -37.80859375 217.0859375 C-35.02290149 196.73572243 -19.67969903 178.54278665 -4.01953125 166.16796875 C5.11409954 159.61018727 16.48503573 152 28 152 C26.47940093 155.88014936 24.13921469 157.73906562 20.875 160.25 C19.96492187 160.95640625 19.05484375 161.6628125 18.1171875 162.390625 C17.06917969 163.18726563 17.06917969 163.18726563 16 164 C29.44452848 157.93392207 39.3253812 149.08091386 49.45214844 138.59619141 C51.60940237 136.37156582 53.80267026 134.18498519 56 132 C56.125 138.75 56.125 138.75 55 141 C63.78914379 138.59763403 68.33663706 135.22108964 74 128 C74.66386719 128.88042969 75.32773437 129.76085937 76.01171875 130.66796875 C76.90344776 131.8412964 77.79538602 133.01446503 78.6875 134.1875 C79.12255859 134.76564453 79.55761719 135.34378906 80.00585938 135.93945312 C82.78251635 139.57995893 85.69105244 142.83414207 89 146 C89.16305731 140.04840832 88.65307346 134.58692535 87.5 128.75 C87.33129395 127.89462646 87.16258789 127.03925293 86.98876953 126.15795898 C85.02311175 117.00019822 81.57405847 108.53084331 77.85058594 99.96533203 C76.85355464 97.66162883 75.9159301 95.33703815 75 93 C74.89042969 93.90363281 74.78085937 94.80726563 74.66796875 95.73828125 C74.50941406 96.91777344 74.35085938 98.09726563 74.1875 99.3125 C73.96126953 101.07013672 73.96126953 101.07013672 73.73046875 102.86328125 C72.98107788 106.08125381 72.63008281 107.12310488 70 109 C55.0447218 117.13567134 38.52094683 117.62167361 22.66064453 112.95507812 C17.27308392 111.27308392 17.27308392 111.27308392 15 109 C15.25 106.4375 15.25 106.4375 16 104 C16.66 103.67 17.32 103.34 18 103 C17.071875 102.649375 16.14375 102.29875 15.1875 101.9375 C11.15519105 99.48648868 10.73344906 97.29593896 9 93 C6.73512071 90.90084359 4.74958564 89.37479282 2 88 C1.19415344 85.73743083 0.59481291 83.44920748 -0.0234375 81.12890625 C-1.24414203 78.46777037 -2.38039122 78.13896034 -5 77 C-6.84124418 73.59369827 -7.21937561 70.83907326 -7 67 C-6.154375 67.495 -5.30875 67.99 -4.4375 68.5 C-0.51760133 70.21050124 1.7710994 70.61511282 6 70 C9.46991083 67.4352833 10.78073813 65.89391378 11.8125 61.6875 C11.874375 60.800625 11.93625 59.91375 12 59 C12.66 59 13.32 59 14 59 C9.79354409 54.34193073 3.7768492 53.35702104 -2.16015625 52.09765625 C-2.90378418 51.93644287 -3.64741211 51.77522949 -4.41357422 51.60913086 C-5.90006285 51.29264955 -7.39002854 50.99197731 -8.88330078 50.70922852 C-14.16994167 49.58798522 -17.08686733 47.73442268 -21 44 C-20.57640444 41.54314575 -20.34489637 40.3035088 -18.4375 38.625 C-16.73970728 36.99196627 -16.73970728 36.99196627 -16.5 34.125 C-17.1565983 30.02126065 -18.93550941 28.69077222 -22 26 C-23.61380195 22.77239609 -23.39935648 20.59420831 -23 17 C-18.50779281 7.60117537 -10.80484285 -0.72032286 0 0 Z " fill="#F2F2F2" transform="translate(202,112)"/>
<path d="M0 0 C0.82113281 0.63035156 1.64226562 1.26070312 2.48828125 1.91015625 C17.11811944 13.27336391 30.55994203 26.45422183 42 41 C42.79148437 41.97453125 43.58296875 42.9490625 44.3984375 43.953125 C70.36996042 76.56090456 85.71634189 116.04625825 92 157 C92.11859375 157.74217773 92.2371875 158.48435547 92.359375 159.24902344 C93.96288979 169.6002841 94.19608238 179.90920493 94.25 190.375 C94.2593457 191.6544751 94.26869141 192.9339502 94.27832031 194.25219727 C94.27413086 195.45545654 94.26994141 196.65871582 94.265625 197.8984375 C94.26336914 198.97786621 94.26111328 200.05729492 94.25878906 201.16943359 C94.00310037 203.96608899 93.44460914 205.62220491 92 208 C91.71390869 207.47680176 91.42781738 206.95360352 91.13305664 206.41455078 C80.23546797 186.63833177 70.44019037 174.66924145 48.08496094 168.14990234 C45.16696744 167.36481614 42.24298933 166.61200929 39.3125 165.875 C38.33216797 165.62363281 37.35183594 165.37226563 36.34179688 165.11328125 C31.02000772 163.74337144 31.02000772 163.74337144 25.67358398 162.47485352 C21.75181597 161.57882799 18.7081849 160.53966238 15.4375 158.1875 C14.29667969 157.39085937 14.29667969 157.39085937 13.1328125 156.578125 C11.8582222 155.63502156 10.59722844 154.67238677 9.3671875 153.671875 C1.99997325 147.82252901 -7.35473508 145.66015271 -16.3046875 143.33984375 C-17.43543701 143.04577637 -18.56618652 142.75170898 -19.73120117 142.44873047 C-21.98274337 141.87141196 -24.23804056 141.30848569 -26.49731445 140.76220703 C-36.85305681 138.13319504 -45.82836325 133.89988302 -53.5625 126.4375 C-54.09987793 125.93081787 -54.63725586 125.42413574 -55.19091797 124.90209961 C-72.58987614 108.04669787 -72.58987614 108.04669787 -73.15234375 99.75390625 C-73.08144531 99.03074219 -73.01054687 98.30757812 -72.9375 97.5625 C-72.75955345 92.88173216 -74.20240735 90.78497828 -77 87 C-78.79641614 81.94057902 -79.22006583 77.42721883 -79.01953125 72.1171875 C-78.98934156 70.60418422 -78.96007471 69.09116229 -78.93164062 67.578125 C-78.87627652 65.23478455 -78.81309826 62.89242465 -78.73266602 60.54980469 C-78.20165029 44.09354035 -82.39719905 31.22160758 -93.1796875 18.41015625 C-98.25762803 13.0075605 -103.65757975 9.12594353 -109.95385742 5.33691406 C-113.75331196 2.99253652 -116.54852444 0.5690716 -119.375 -2.875 C-123.46925214 -7.83484456 -126.91417791 -9.50970135 -133.24609375 -10.26953125 C-159.37337057 -11.37005617 -184.67811697 -1.60090284 -206.19384766 12.38891602 C-215.72297985 18.51996015 -226.43743751 24.73413095 -238 24 C-238.66 23.01 -239.32 22.02 -240 21 C-244.87907354 28.8413682 -244.90493502 37.0920459 -244 46 C-242.81298003 50.57744575 -240.12040171 53.15228922 -236.3125 55.8125 C-232.08617505 58.23209093 -227.78152158 59.25842142 -223 60 C-222.95101562 61.05058594 -222.90203125 62.10117188 -222.8515625 63.18359375 C-222.50843174 69.8452551 -222.1736071 76.24149939 -220.46484375 82.71484375 C-219.64325865 86.75372849 -219.5953176 90.87345247 -219.44140625 94.984375 C-218.81335768 99.27511389 -217.29890793 101.94828485 -213.92431641 104.68066406 C-211.3151675 107.82541344 -211.44967687 110.5623057 -211.49609375 114.46875 C-211.4819619 115.5447345 -211.4819619 115.5447345 -211.46754456 116.64245605 C-211.43892895 118.92859616 -211.435815 121.2136954 -211.4375 123.5 C-211.43388953 125.78615231 -211.42433176 128.07154918 -211.39674377 130.35754395 C-211.37998677 131.77761301 -211.37705566 133.19793085 -211.38975525 134.61804199 C-211.35752489 137.64972362 -211.1298297 139.75676614 -209.69165039 142.45117188 C-207.95758363 144.3601765 -207.95758363 144.3601765 -204.5625 144.25 C-203.386875 144.1675 -202.21125 144.085 -201 144 C-199.68 144 -198.36 144 -197 144 C-195.09293166 146.05963381 -193.84831716 148.26089449 -192.4375 150.6875 C-191.2091532 153.11355864 -191.2091532 153.11355864 -189 154 C-188.835 155.0725 -188.67 156.145 -188.5 157.25 C-188.11208185 159.23055573 -188.11208185 159.23055573 -187 161 C-184.69133802 162.32932991 -184.69133802 162.32932991 -182 163.375 C-177.26548405 165.41281174 -177.26548405 165.41281174 -176.00390625 168.203125 C-175.5625 170.625 -175.5625 170.625 -175.37890625 172.9140625 C-175.12904584 175.03796218 -175.12904584 175.03796218 -173.8984375 176.7265625 C-169.04428846 179.98263778 -161.55295243 179.06693799 -156 178 C-149.78994145 175.91882239 -143.94207832 172.97363426 -138.1496582 169.93969727 C-135.78441598 168.90576004 -133.54016265 168.42220233 -131 168 C-131.9156026 169.22995949 -132.83254203 170.45892386 -133.75 171.6875 C-134.26046875 172.37199219 -134.7709375 173.05648437 -135.296875 173.76171875 C-135.85890625 174.50035156 -136.4209375 175.23898438 -137 176 C-137.60328125 176.82113281 -138.2065625 177.64226562 -138.828125 178.48828125 C-142.0921726 182.26307011 -146.07487784 184.84316327 -150.125 187.71875 C-153.89425544 190.70957225 -156.3474838 194.0212257 -159 198 C-161.6875 198.625 -161.6875 198.625 -165 199 C-179.62157184 200.99239001 -190.65444031 206.62368933 -202 216 C-203.485 217.11375 -203.485 217.11375 -205 218.25 C-209.66130748 222.18822377 -213.27364717 227.20616824 -217 232 C-217.59941406 232.73734375 -218.19882813 233.4746875 -218.81640625 234.234375 C-224.72327256 241.9640098 -228.25818792 250.98024945 -232.05786133 259.86865234 C-234.16736698 264.64086907 -235.22213328 266.435338 -240.0625 268.75 C-252.55918343 275.31688462 -259.75439609 284.62513983 -264.01660156 298.04467773 C-264.59706212 299.96984085 -265.1317781 301.90862021 -265.6640625 303.84765625 C-267 307 -267 307 -269.3984375 308.99609375 C-272 310 -272 310 -274.01953125 309.98828125 C-286.31223307 303.85405332 -296.35201114 285.21236288 -301 273 C-301 272.34 -301 271.68 -301 271 C-300.05640625 270.78085937 -299.1128125 270.56171875 -298.140625 270.3359375 C-282.54389585 266.55571678 -269.45950211 260.47815829 -260.1875 246.75 C-255.56364746 238.96706145 -251.51711807 230.1357526 -251 221 C-250.94972656 220.2678125 -250.89945313 219.535625 -250.84765625 218.78125 C-250.27802131 204.38087873 -256.0194794 191.30271945 -265.5 180.625 C-267.50702496 178.50564156 -269.51245533 176.43038812 -271.70141602 174.49804688 C-276.68077145 169.94231121 -278.77116041 165.57083242 -280.9375 159.25 C-283.97232284 151.08149792 -287.18466811 144.59070947 -293 138 C-293.58652344 137.32839844 -294.17304688 136.65679687 -294.77734375 135.96484375 C-304.08027827 126.02905654 -316.65730797 121.21043392 -330.125 120.75 C-343.83440899 120.95406427 -355.16179467 126.27481809 -365.25 135.4375 C-374.88359305 145.55355086 -379.303253 157.88548318 -379.1484375 171.6640625 C-378.55729356 184.94924473 -373.05453178 197.49487242 -365 208 C-363.93458984 208.680625 -363.93458984 208.680625 -362.84765625 209.375 C-360.02296148 211.85929815 -360.30305985 214.26668756 -360 217.9375 C-358.19748012 234.99875149 -350.98014844 248.68093088 -338 260 C-337.34 260.33 -336.68 260.66 -336 261 C-335.51317362 263.94004952 -335.18477767 266.78532972 -334.9375 269.75 C-334.85298584 270.69504395 -334.76847168 271.64008789 -334.68139648 272.61376953 C-334.15803066 279.11853158 -333.8978931 285.61087947 -333.7578125 292.1328125 C-333.74011307 292.93219238 -333.72241364 293.73157227 -333.70417786 294.55517578 C-333.61970652 298.55343587 -333.5547671 302.55083141 -333.51733398 306.54980469 C-333.37485032 316.68952172 -332.17190067 326.08596322 -330 336 C-329.66356359 337.66604305 -329.32886654 339.3324462 -329 341 C-333.18780235 337.07202481 -336.47281897 332.82982165 -339.75 328.125 C-340.27658203 327.36960937 -340.80316406 326.61421875 -341.34570312 325.8359375 C-354.73063973 306.44973527 -365.12165217 285.67868276 -372.5625 263.3125 C-372.96782959 262.0968335 -373.37315918 260.88116699 -373.79077148 259.62866211 C-384.22555532 227.1818645 -387.34858334 190.68798224 -382 157 C-381.87641113 156.17580566 -381.75282227 155.35161133 -381.62548828 154.50244141 C-372.13575137 92.33028625 -338.1489297 35.62192564 -287.58032227 -1.79589844 C-279.57057706 -7.65320819 -271.42206298 -13.1080005 -262.78271484 -17.99121094 C-261.05091536 -18.97118841 -259.33185213 -19.97356727 -257.61328125 -20.9765625 C-235.00516572 -33.86206676 -209.58829702 -41.80519721 -184 -46 C-182.93394531 -46.19335938 -181.86789063 -46.38671875 -180.76953125 -46.5859375 C-118.82629682 -57.64436745 -48.99636207 -39.21191458 0 0 Z M-308 22 C-308.50805176 22.4861377 -309.01610352 22.97227539 -309.53955078 23.47314453 C-316.57285974 30.24196052 -323.0387909 37.25042818 -329 45 C-329.41572266 45.53399414 -329.83144531 46.06798828 -330.25976562 46.61816406 C-350.01780652 72.1279902 -368.27031773 104.57441909 -373 137 C-372.01 136.13375 -371.02 135.2675 -370 134.375 C-367.39533506 132.1529116 -364.76719389 129.97448516 -362.0625 127.875 C-361.18271484 127.19050781 -361.18271484 127.19050781 -360.28515625 126.4921875 C-358 125 -358 125 -356.15771484 124.36352539 C-352.54403796 123.01148973 -350.51017312 121.82948432 -348.45336914 118.48535156 C-347.00772273 115.25711332 -345.73256808 112.00289174 -344.5 108.6875 C-343.55557103 106.31449437 -342.60637224 103.94338135 -341.65234375 101.57421875 C-341.19843262 100.43388184 -340.74452148 99.29354492 -340.27685547 98.11865234 C-332.37238269 78.8123932 -319.46714116 61.74736287 -306 46 C-305.16210938 45.01902344 -304.32421875 44.03804688 -303.4609375 43.02734375 C-298.96040582 37.90044941 -294.22329413 33.37383107 -289 29 C-288.08992188 28.19046875 -287.17984375 27.3809375 -286.2421875 26.546875 C-254.18573479 -1.77094564 -214.06335221 -18.08635048 -172 -24 C-171.32267822 -24.103125 -170.64535645 -24.20625 -169.94750977 -24.3125 C-161.95855219 -25.38677452 -153.85885683 -25.24391373 -145.8125 -25.25 C-145.01109589 -25.25067474 -144.20969177 -25.25134949 -143.38400269 -25.25204468 C-130.38403521 -25.23469517 -117.77576611 -24.58566102 -105 -22 C-104.1239209 -21.82307617 -103.2478418 -21.64615234 -102.34521484 -21.46386719 C-56.93023115 -11.9829674 -11.60982191 11.47083024 18 48 C18.89958842 49.07564728 19.79934383 50.1511549 20.69921875 51.2265625 C48.12419649 84.35911791 66.52367785 125.95915529 69.62304688 169.12963867 C70.28626636 172.42039287 72.49022518 173.94654788 75 176 C78.89486819 179.68987513 82.1289797 183.64158847 85.3515625 187.9140625 C86.80801866 189.75706627 88.32637027 191.35912919 90 193 C89.23691395 139.38004839 73.60872183 88.30382234 40 46 C39.30777344 45.11570312 38.61554688 44.23140625 37.90234375 43.3203125 C29.48088713 32.77438679 20.41034427 22.61412531 10 14 C9.12988281 13.21882813 8.25976562 12.43765625 7.36328125 11.6328125 C-24.98647532 -17.19195822 -66.54149625 -34.89694626 -109 -42 C-109.67514648 -42.11859375 -110.35029297 -42.2371875 -111.04589844 -42.359375 C-182.22061413 -54.35872496 -256.68695681 -27.28285355 -308 22 Z M-379 196 C-380.91564254 237.57653809 -365.05002744 281.3136858 -343 316 C-342.62327148 316.59296875 -342.24654297 317.1859375 -341.85839844 317.796875 C-340.93606061 319.21815525 -339.97220763 320.61235562 -339 322 C-338.67 322 -338.34 322 -338 322 C-337.52801914 300.72296487 -337.59705741 282.68946165 -347.76220703 263.45629883 C-349.03946546 260.92168402 -350.08554087 258.36647885 -351.10546875 255.71875 C-352.57421264 251.93440888 -354.29491217 248.6103977 -356.5 245.1875 C-361.41169739 236.96277332 -363.76671565 228.74035115 -364.75 219.25 C-365.55412945 213.17516749 -367.71833329 210.30495458 -372.0234375 206.078125 C-374.91398567 203.03905063 -376.33221829 199.82199976 -378 196 C-378.33 196 -378.66 196 -379 196 Z " fill="#B21919" transform="translate(395,60)"/>
<path d="M0 0 C0.82113281 0.63035156 1.64226562 1.26070312 2.48828125 1.91015625 C17.11811944 13.27336391 30.55994203 26.45422183 42 41 C42.79148437 41.97453125 43.58296875 42.9490625 44.3984375 43.953125 C70.36996042 76.56090456 85.71634189 116.04625825 92 157 C92.11859375 157.74217773 92.2371875 158.48435547 92.359375 159.24902344 C93.96288979 169.6002841 94.19608238 179.90920493 94.25 190.375 C94.2593457 191.6544751 94.26869141 192.9339502 94.27832031 194.25219727 C94.27413086 195.45545654 94.26994141 196.65871582 94.265625 197.8984375 C94.26336914 198.97786621 94.26111328 200.05729492 94.25878906 201.16943359 C94.00310037 203.96608899 93.44460914 205.62220491 92 208 C91.71390869 207.47680176 91.42781738 206.95360352 91.13305664 206.41455078 C80.23546797 186.63833177 70.44019037 174.66924145 48.08496094 168.14990234 C45.16696744 167.36481614 42.24298933 166.61200929 39.3125 165.875 C38.33216797 165.62363281 37.35183594 165.37226563 36.34179688 165.11328125 C31.02000772 163.74337144 31.02000772 163.74337144 25.67358398 162.47485352 C21.75181597 161.57882799 18.7081849 160.53966238 15.4375 158.1875 C14.29667969 157.39085937 14.29667969 157.39085937 13.1328125 156.578125 C11.8582222 155.63502156 10.59722844 154.67238677 9.3671875 153.671875 C1.99997325 147.82252901 -7.35473508 145.66015271 -16.3046875 143.33984375 C-17.43543701 143.04577637 -18.56618652 142.75170898 -19.73120117 142.44873047 C-21.98274337 141.87141196 -24.23804056 141.30848569 -26.49731445 140.76220703 C-36.85305681 138.13319504 -45.82836325 133.89988302 -53.5625 126.4375 C-54.09987793 125.93081787 -54.63725586 125.42413574 -55.19091797 124.90209961 C-72.58987614 108.04669787 -72.58987614 108.04669787 -73.15234375 99.75390625 C-73.08144531 99.03074219 -73.01054687 98.30757812 -72.9375 97.5625 C-72.75955345 92.88173216 -74.20240735 90.78497828 -77 87 C-78.79641614 81.94057902 -79.22006583 77.42721883 -79.01953125 72.1171875 C-78.98934156 70.60418422 -78.96007471 69.09116229 -78.93164062 67.578125 C-78.87627652 65.23478455 -78.81309826 62.89242465 -78.73266602 60.54980469 C-78.20165029 44.09354035 -82.39719905 31.22160758 -93.1796875 18.41015625 C-98.25762803 13.0075605 -103.65757975 9.12594353 -109.95385742 5.33691406 C-113.75331196 2.99253652 -116.54852444 0.5690716 -119.375 -2.875 C-123.46925214 -7.83484456 -126.91417791 -9.50970135 -133.24609375 -10.26953125 C-159.37337057 -11.37005617 -184.67811697 -1.60090284 -206.19384766 12.38891602 C-215.72297985 18.51996015 -226.43743751 24.73413095 -238 24 C-238.66 23.01 -239.32 22.02 -240 21 C-244.87907354 28.8413682 -244.90493502 37.0920459 -244 46 C-242.81298003 50.57744575 -240.12040171 53.15228922 -236.3125 55.8125 C-232.08617505 58.23209093 -227.78152158 59.25842142 -223 60 C-222.95101562 61.05058594 -222.90203125 62.10117188 -222.8515625 63.18359375 C-222.50843174 69.8452551 -222.1736071 76.24149939 -220.46484375 82.71484375 C-219.64325865 86.75372849 -219.5953176 90.87345247 -219.44140625 94.984375 C-218.81335768 99.27511389 -217.29890793 101.94828485 -213.92431641 104.68066406 C-211.3151675 107.82541344 -211.44967687 110.5623057 -211.49609375 114.46875 C-211.4819619 115.5447345 -211.4819619 115.5447345 -211.46754456 116.64245605 C-211.43892895 118.92859616 -211.435815 121.2136954 -211.4375 123.5 C-211.43388953 125.78615231 -211.42433176 128.07154918 -211.39674377 130.35754395 C-211.37998677 131.77761301 -211.37705566 133.19793085 -211.38975525 134.61804199 C-211.35752489 137.64972362 -211.1298297 139.75676614 -209.69165039 142.45117188 C-207.95758363 144.3601765 -207.95758363 144.3601765 -204.5625 144.25 C-203.386875 144.1675 -202.21125 144.085 -201 144 C-199.68 144 -198.36 144 -197 144 C-195.09293166 146.05963381 -193.84831716 148.26089449 -192.4375 150.6875 C-191.2091532 153.11355864 -191.2091532 153.11355864 -189 154 C-188.835 155.0725 -188.67 156.145 -188.5 157.25 C-188.11208185 159.23055573 -188.11208185 159.23055573 -187 161 C-184.69133802 162.32932991 -184.69133802 162.32932991 -182 163.375 C-177.26548405 165.41281174 -177.26548405 165.41281174 -176.00390625 168.203125 C-175.5625 170.625 -175.5625 170.625 -175.37890625 172.9140625 C-175.12904584 175.03796218 -175.12904584 175.03796218 -173.8984375 176.7265625 C-169.04428846 179.98263778 -161.55295243 179.06693799 -156 178 C-149.78994145 175.91882239 -143.94207832 172.97363426 -138.1496582 169.93969727 C-135.78441598 168.90576004 -133.54016265 168.42220233 -131 168 C-131.9156026 169.22995949 -132.83254203 170.45892386 -133.75 171.6875 C-134.26046875 172.37199219 -134.7709375 173.05648437 -135.296875 173.76171875 C-135.85890625 174.50035156 -136.4209375 175.23898438 -137 176 C-137.60328125 176.82113281 -138.2065625 177.64226562 -138.828125 178.48828125 C-142.0921726 182.26307011 -146.07487784 184.84316327 -150.125 187.71875 C-153.89425544 190.70957225 -156.3474838 194.0212257 -159 198 C-161.6875 198.625 -161.6875 198.625 -165 199 C-179.62157184 200.99239001 -190.65444031 206.62368933 -202 216 C-203.485 217.11375 -203.485 217.11375 -205 218.25 C-209.66130748 222.18822377 -213.27364717 227.20616824 -217 232 C-217.59941406 232.73734375 -218.19882813 233.4746875 -218.81640625 234.234375 C-224.72327256 241.9640098 -228.25818792 250.98024945 -232.05786133 259.86865234 C-234.16736698 264.64086907 -235.22213328 266.435338 -240.0625 268.75 C-252.55918343 275.31688462 -259.75439609 284.62513983 -264.01660156 298.04467773 C-264.59706212 299.96984085 -265.1317781 301.90862021 -265.6640625 303.84765625 C-267 307 -267 307 -269.3984375 308.99609375 C-272 310 -272 310 -274.01953125 309.98828125 C-286.31223307 303.85405332 -296.35201114 285.21236288 -301 273 C-301 272.34 -301 271.68 -301 271 C-300.05640625 270.78085937 -299.1128125 270.56171875 -298.140625 270.3359375 C-282.54389585 266.55571678 -269.45950211 260.47815829 -260.1875 246.75 C-255.56364746 238.96706145 -251.51711807 230.1357526 -251 221 C-250.94972656 220.2678125 -250.89945313 219.535625 -250.84765625 218.78125 C-250.27802131 204.38087873 -256.0194794 191.30271945 -265.5 180.625 C-267.50702496 178.50564156 -269.51245533 176.43038812 -271.70141602 174.49804688 C-276.68077145 169.94231121 -278.77116041 165.57083242 -280.9375 159.25 C-283.97232284 151.08149792 -287.18466811 144.59070947 -293 138 C-293.58652344 137.32839844 -294.17304688 136.65679687 -294.77734375 135.96484375 C-304.08027827 126.02905654 -316.65730797 121.21043392 -330.125 120.75 C-343.83440899 120.95406427 -355.16179467 126.27481809 -365.25 135.4375 C-374.88359305 145.55355086 -379.303253 157.88548318 -379.1484375 171.6640625 C-378.55729356 184.94924473 -373.05453178 197.49487242 -365 208 C-363.93458984 208.680625 -363.93458984 208.680625 -362.84765625 209.375 C-360.02296148 211.85929815 -360.30305985 214.26668756 -360 217.9375 C-358.19748012 234.99875149 -350.98014844 248.68093088 -338 260 C-337.34 260.33 -336.68 260.66 -336 261 C-335.51317362 263.94004952 -335.18477767 266.78532972 -334.9375 269.75 C-334.85298584 270.69504395 -334.76847168 271.64008789 -334.68139648 272.61376953 C-334.15803066 279.11853158 -333.8978931 285.61087947 -333.7578125 292.1328125 C-333.74011307 292.93219238 -333.72241364 293.73157227 -333.70417786 294.55517578 C-333.61970652 298.55343587 -333.5547671 302.55083141 -333.51733398 306.54980469 C-333.37485032 316.68952172 -332.17190067 326.08596322 -330 336 C-329.66356359 337.66604305 -329.32886654 339.3324462 -329 341 C-333.18780235 337.07202481 -336.47281897 332.82982165 -339.75 328.125 C-340.27658203 327.36960937 -340.80316406 326.61421875 -341.34570312 325.8359375 C-354.73063973 306.44973527 -365.12165217 285.67868276 -372.5625 263.3125 C-372.96782959 262.0968335 -373.37315918 260.88116699 -373.79077148 259.62866211 C-384.22555532 227.1818645 -387.34858334 190.68798224 -382 157 C-381.87641113 156.17580566 -381.75282227 155.35161133 -381.62548828 154.50244141 C-372.13575137 92.33028625 -338.1489297 35.62192564 -287.58032227 -1.79589844 C-279.57057706 -7.65320819 -271.42206298 -13.1080005 -262.78271484 -17.99121094 C-261.05091536 -18.97118841 -259.33185213 -19.97356727 -257.61328125 -20.9765625 C-235.00516572 -33.86206676 -209.58829702 -41.80519721 -184 -46 C-182.93394531 -46.19335938 -181.86789063 -46.38671875 -180.76953125 -46.5859375 C-118.82629682 -57.64436745 -48.99636207 -39.21191458 0 0 Z M-308 22 C-308.50805176 22.4861377 -309.01610352 22.97227539 -309.53955078 23.47314453 C-316.57285974 30.24196052 -323.0387909 37.25042818 -329 45 C-329.41572266 45.53399414 -329.83144531 46.06798828 -330.25976562 46.61816406 C-350.01780652 72.1279902 -368.27031773 104.57441909 -373 137 C-372.01 136.13375 -371.02 135.2675 -370 134.375 C-357.54673366 123.75088546 -345.38724647 117.18641287 -328.4921875 117.65234375 C-312.06695897 119.28751751 -298.80575027 125.26993804 -288 138 C-282.6405961 144.97573206 -279.39673193 152.44362587 -276.359375 160.6171875 C-274.04743474 166.37046411 -271.27123467 169.89423571 -266.75 174.125 C-255.21419167 185.30708918 -247.33437769 200.2251562 -246.5 216.375 C-246.73706351 232.12279023 -254.12932975 247.53411866 -264.765625 258.91015625 C-273.34143722 266.93123936 -284.22433122 270.84385108 -295 275 C-293.10911751 281.84435977 -290.5608947 286.58172781 -286 292 C-285.01560364 293.20440963 -284.03123074 294.40883843 -283.046875 295.61328125 C-281.97034765 296.910182 -280.892207 298.20574519 -279.8125 299.5 C-279.28922119 300.13639404 -278.76594238 300.77278809 -278.22680664 301.4284668 C-276.88369884 303.010637 -275.44753735 304.51277548 -274 306 C-273.01 306 -272.02 306 -271 306 C-270.69707031 305.10539062 -270.39414062 304.21078125 -270.08203125 303.2890625 C-264.03947143 285.84930523 -256.77601437 273.28795599 -239.97265625 264.3984375 C-235.94372055 261.14775876 -234.86157042 257.76998484 -233.125 253 C-223.91385853 229.65262108 -206.46442629 211.10629147 -184 200 C-178.12316656 197.56096937 -172.56211528 196.0331404 -166.25 195.3125 C-160.56452609 194.41393372 -158.30805972 191.68336163 -154.859375 187.265625 C-152.27685127 184.11885239 -149.40337861 182.19801536 -146 180 C-146.66 179.67 -147.32 179.34 -148 179 C-149.26650391 179.69996094 -149.26650391 179.69996094 -150.55859375 180.4140625 C-154.90553161 182.41730514 -158.3457942 182.44464783 -163.0625 182.375 C-163.85205078 182.38660156 -164.64160156 182.39820313 -165.45507812 182.41015625 C-170.12271289 182.38668114 -173.20932918 182.00365536 -177 179 C-178.9160961 176.39958386 -179.94465634 174.73791545 -180.1875 171.5 C-181.37114962 167.85800117 -183.83546336 167.03258359 -187.05859375 165.1875 C-190.10007032 163.32711997 -191.66280242 161.39094003 -192.5 157.9375 C-193.12699511 155.50789396 -194.20594857 154.72504945 -196 153 C-196.5878125 151.6696875 -196.5878125 151.6696875 -197.1875 150.3125 C-197.785625 149.549375 -198.38375 148.78625 -199 148 C-202.58400053 147.75620021 -202.58400053 147.75620021 -205 147.94140625 C-207.77849449 148.02280746 -209.61618053 147.40224675 -212 146 C-214.50022984 142.38861745 -214.22514641 138.92224199 -214.203125 134.63671875 C-214.2136762 133.17772546 -214.22543311 131.71874049 -214.23828125 130.25976562 C-214.24857292 127.9752601 -214.25003883 125.69192248 -214.22998047 123.4074707 C-213.75159051 113.42904145 -213.75159051 113.42904145 -217.921875 104.83203125 C-218.46295898 104.34089844 -219.00404297 103.84976563 -219.56152344 103.34375 C-223.29066795 99.86017712 -223.40811061 93.98074714 -224 89.1875 C-224.24363281 87.24230469 -224.24363281 87.24230469 -224.4921875 85.2578125 C-224.6623274 83.83864559 -224.83155715 82.41936934 -225 81 C-225.13970215 79.83549316 -225.13970215 79.83549316 -225.28222656 78.64746094 C-225.86685189 73.76633489 -226.43809502 68.88379117 -227 64 C-227.6290625 63.79246094 -228.258125 63.58492188 -228.90625 63.37109375 C-236.69976167 60.56589904 -242.42010175 56.9504692 -247 49.9375 C-250.59452477 39.36675939 -247.73328995 28.63333538 -243 19 C-241.46145245 16.17435728 -239.86029295 13.63541502 -238 11 C-237.67 11 -237.34 11 -237 11 C-236.01 15.95 -236.01 15.95 -235 21 C-229.69957327 20.49099615 -225.55029269 19.15560757 -220.8125 16.6875 C-220.13251953 16.34211182 -219.45253906 15.99672363 -218.75195312 15.64086914 C-213.00885846 12.66270495 -207.51175288 9.319316 -202 5.9375 C-188.55178644 -2.26756075 -175.43721217 -7.8461217 -160 -11 C-159.28634277 -11.14953125 -158.57268555 -11.2990625 -157.83740234 -11.453125 C-143.6440392 -14.37556587 -130.92349525 -16.47184473 -118.125 -8.125 C-116 -6 -116 -6 -114.3125 -3.125 C-112.00725279 -0.00980107 -110.65940054 0.962783 -107.375 2.8125 C-92.60203884 11.1454074 -81.00880999 25.28422249 -75.78295898 41.38769531 C-74.08145336 49.23785972 -74.87013646 57.39530849 -75.23291016 65.37304688 C-75.63818509 75.02777397 -75.5737763 82.05247911 -70.29589844 90.56225586 C-68.87288392 93.23912096 -68.75912383 94.59852298 -69.125 97.5625 C-69.58045153 104.05560384 -64.98530908 108.32214116 -61 113 C-60.57187012 113.51030762 -60.14374023 114.02061523 -59.70263672 114.54638672 C-49.80825958 126.24765781 -39.43687724 134.03367322 -24.3125 137.25 C-10.53559495 140.38660893 3.44115748 143.87156443 14.48046875 153.10546875 C21.71151185 158.54276472 29.29303388 160.14239927 38.0625 161.875 C48.25349976 164.0194659 57.63166539 166.40055924 67 171 C67.93585938 171.44859375 68.87171875 171.8971875 69.8359375 172.359375 C78.65854906 177.07536557 83.6298039 184.83730193 89 193 C89.33 193 89.66 193 90 193 C89.23691395 139.38004839 73.60872183 88.30382234 40 46 C39.30777344 45.11570312 38.61554688 44.23140625 37.90234375 43.3203125 C29.48088713 32.77438679 20.41034427 22.61412531 10 14 C9.12988281 13.21882813 8.25976562 12.43765625 7.36328125 11.6328125 C-24.98647532 -17.19195822 -66.54149625 -34.89694626 -109 -42 C-109.67514648 -42.11859375 -110.35029297 -42.2371875 -111.04589844 -42.359375 C-182.22061413 -54.35872496 -256.68695681 -27.28285355 -308 22 Z M-379 196 C-380.91564254 237.57653809 -365.05002744 281.3136858 -343 316 C-342.62327148 316.59296875 -342.24654297 317.1859375 -341.85839844 317.796875 C-340.93606061 319.21815525 -339.97220763 320.61235562 -339 322 C-338.67 322 -338.34 322 -338 322 C-337.52801914 300.72296487 -337.59705741 282.68946165 -347.76220703 263.45629883 C-349.03946546 260.92168402 -350.08554087 258.36647885 -351.10546875 255.71875 C-352.57421264 251.93440888 -354.29491217 248.6103977 -356.5 245.1875 C-361.41169739 236.96277332 -363.76671565 228.74035115 -364.75 219.25 C-365.55412945 213.17516749 -367.71833329 210.30495458 -372.0234375 206.078125 C-374.91398567 203.03905063 -376.33221829 199.82199976 -378 196 C-378.33 196 -378.66 196 -379 196 Z " fill="#EBE8E8" transform="translate(395,60)"/>
<path d="M0 0 C9.48848395 4.21710398 14.41095119 14.75767392 18 24 C20.2058246 30.63584176 21.55812966 37.48878348 22.80078125 44.359375 C22.93000977 45.07367676 23.05923828 45.78797852 23.19238281 46.52392578 C23.54142815 48.50537973 23.86717491 50.49089726 24.19140625 52.4765625 C25.97483619 60.24783693 30.45047182 65.05789898 35.625 70.90234375 C40.58224442 77.36796023 41.85062956 84.0563491 43.1875 91.9375 C43.3618457 92.94498291 43.53619141 93.95246582 43.71582031 94.99047852 C45.08329615 103.40875075 45.44483563 111.4863403 45 120 C3.87876219 120.77102321 -35.00900752 113.95684168 -72.0625 95.6875 C-72.72354736 95.36217285 -73.38459473 95.0368457 -74.06567383 94.70166016 C-77.14266822 93.13363522 -79.76116796 91.66527624 -82 89 C-80.9584375 88.46632813 -79.916875 87.93265625 -78.84375 87.3828125 C-43.11903446 68.89610258 -14.66385155 47.91029733 -1.7265625 8.6484375 C-0.94048281 5.78305026 -0.43924998 2.93694596 0 0 Z M-59.109375 81.01953125 C-59.86347656 81.46490234 -60.61757812 81.91027344 -61.39453125 82.36914062 C-62.17183594 82.84544922 -62.94914062 83.32175781 -63.75 83.8125 C-64.93916016 84.50956055 -64.93916016 84.50956055 -66.15234375 85.22070312 C-69.15491225 86.99481999 -69.15491225 86.99481999 -72 89 C-72 89.66 -72 90.32 -72 91 C-50.52589448 100.99943977 -28.54228016 108.72576177 -5.12695312 112.64160156 C-3.23101055 112.96107398 -1.34143651 113.31783045 0.546875 113.6796875 C13.84680065 115.91677177 27.55799916 115.16249564 41 115 C40.01 106.09 40.01 106.09 39 97 C37.50855469 96.97421875 36.01710938 96.9484375 34.48046875 96.921875 C5.29184348 96.20868168 -21.94667015 91.31328845 -49.10327148 80.67675781 C-49.72919189 80.45342773 -50.3551123 80.23009766 -51 80 C-51.65524658 79.76337646 -52.31049316 79.52675293 -52.9855957 79.28295898 C-55.67879676 78.9046509 -56.79139846 79.6398219 -59.109375 81.01953125 Z " fill="#B21A1A" transform="translate(217,369)"/>
<path d="M0 0 C1.73665881 1.40962566 3.33331289 2.77870328 4.8046875 4.46484375 C4.8046875 5.12484375 4.8046875 5.78484375 4.8046875 6.46484375 C-5.75339906 3.38967291 -5.75339906 3.38967291 -10.1953125 1.46484375 C-9.10560447 5.91448487 -8.2117987 7.78580331 -4.32421875 10.3828125 C-2.14153885 11.58855676 0.06173565 12.75786464 2.28515625 13.88671875 C3.11660156 14.4075 3.94804688 14.92828125 4.8046875 15.46484375 C4.8046875 16.45484375 4.8046875 17.44484375 4.8046875 18.46484375 C4.2478125 18.12710938 3.6909375 17.789375 3.1171875 17.44140625 C1.9725 16.77238281 1.9725 16.77238281 0.8046875 16.08984375 C0.0621875 15.64898437 -0.6803125 15.208125 -1.4453125 14.75390625 C-8.06504094 11.65090854 -14.43952644 11.12331515 -21.6328125 11.15234375 C-22.82487305 11.12817383 -22.82487305 11.12817383 -24.04101562 11.10351562 C-36.04476291 11.09374854 -46.19552885 16.62843901 -54.9453125 24.65234375 C-63.77527062 34.07805808 -67.60468222 44.60577683 -67.38671875 57.3203125 C-66.95776895 64.36734499 -64.49622028 70.83822934 -62.1953125 77.46484375 C-68.18594774 72.11423364 -70.64971531 64.73635682 -71.65234375 56.88671875 C-72.07732009 42.59492169 -66.54918264 32.38638106 -56.96875 22.06640625 C-55.07660585 20.16050105 -53.15523701 18.3005477 -51.1953125 16.46484375 C-50.5353125 15.80484375 -49.8753125 15.14484375 -49.1953125 14.46484375 C-49.82179687 14.89796875 -50.44828125 15.33109375 -51.09375 15.77734375 C-51.91101563 16.33421875 -52.72828125 16.89109375 -53.5703125 17.46484375 C-54.38242188 18.02171875 -55.19453125 18.57859375 -56.03125 19.15234375 C-58.1953125 20.46484375 -58.1953125 20.46484375 -60.1953125 20.46484375 C-60.1953125 21.12484375 -60.1953125 21.78484375 -60.1953125 22.46484375 C-60.8553125 22.13484375 -61.5153125 21.80484375 -62.1953125 21.46484375 C-62.1953125 20.80484375 -62.1953125 20.14484375 -62.1953125 19.46484375 C-62.8553125 19.79484375 -63.5153125 20.12484375 -64.1953125 20.46484375 C-62.66822287 17.02889209 -60.59604205 14.34571921 -58.1953125 11.46484375 C-70.10337495 21.85272801 -76.48082249 35.56658465 -77.8828125 51.15234375 C-77.99752565 52.92252518 -78.10564901 54.69321686 -78.1953125 56.46484375 C-80.62057064 51.93769522 -81.32528469 48.34273046 -81.2578125 43.21484375 C-81.24878906 42.3228125 -81.23976562 41.43078125 -81.23046875 40.51171875 C-81.21886719 39.83625 -81.20726562 39.16078125 -81.1953125 38.46484375 C-82.1853125 38.13484375 -83.1753125 37.80484375 -84.1953125 37.46484375 C-85.42476255 26.64568329 -78.95533795 17.29164275 -72.51171875 9.16015625 C-55.19949168 -10.98391909 -21.83511295 -15.53176902 0 0 Z " fill="#EEEEEE" transform="translate(119.1953125,232.53515625)"/>
<path d="M0 0 C0.33 0 0.66 0 1 0 C1.03440186 0.59312988 1.06880371 1.18625977 1.10424805 1.79736328 C2.24833657 20.1276125 5.11096032 34.48379425 17 49 C17.99 49.66 18.98 50.32 20 51 C20.58984375 54.0546875 20.58984375 54.0546875 20.9375 57.875 C22.84441819 74.95550947 29.9831096 88.64889082 43 100 C43.99 100.495 43.99 100.495 45 101 C45.48682638 103.94004952 45.81522233 106.78532972 46.0625 109.75 C46.14701416 110.69504395 46.23152832 111.64008789 46.31860352 112.61376953 C46.84196934 119.11853158 47.1021069 125.61087947 47.2421875 132.1328125 C47.25988693 132.93219238 47.27758636 133.73157227 47.29582214 134.55517578 C47.38029348 138.55343587 47.4452329 142.55083141 47.48266602 146.54980469 C47.62514968 156.68952172 48.82809933 166.08596322 51 176 C51.33643641 177.66604305 51.67113346 179.3324462 52 181 C47.81219765 177.07202481 44.52718103 172.82982165 41.25 168.125 C40.72341797 167.36960937 40.19683594 166.61421875 39.65429688 165.8359375 C26.26936027 146.44973527 15.87834783 125.67868276 8.4375 103.3125 C8.03217041 102.0968335 7.62684082 100.88116699 7.20922852 99.62866211 C-2.28908016 70.09381942 -7.08147767 33.88590453 -2 3 C-1.34 2.01 -0.68 1.02 0 0 Z M2 36 C0.08435746 77.57653809 15.94997256 121.3136858 38 156 C38.37672852 156.59296875 38.75345703 157.1859375 39.14160156 157.796875 C40.06393939 159.21815525 41.02779237 160.61235562 42 162 C42.33 162 42.66 162 43 162 C43.47198086 140.72296487 43.40294259 122.68946165 33.23779297 103.45629883 C31.96053454 100.92168402 30.91445913 98.36647885 29.89453125 95.71875 C28.42578736 91.93440888 26.70508783 88.6103977 24.5 85.1875 C19.58830261 76.96277332 17.23328435 68.74035115 16.25 59.25 C15.44587055 53.17516749 13.28166671 50.30495458 8.9765625 46.078125 C6.08601433 43.03905063 4.66778171 39.82199976 3 36 C2.67 36 2.34 36 2 36 Z " fill="#ECEBEB" transform="translate(14,220)"/>
<path d="M0 0 C9.48848395 4.21710398 14.41095119 14.75767392 18 24 C20.2058246 30.63584176 21.55812966 37.48878348 22.80078125 44.359375 C22.93000977 45.07367676 23.05923828 45.78797852 23.19238281 46.52392578 C23.54142815 48.50537973 23.86717491 50.49089726 24.19140625 52.4765625 C25.97483619 60.24783693 30.45047182 65.05789898 35.625 70.90234375 C40.58224442 77.36796023 41.85062956 84.0563491 43.1875 91.9375 C43.3618457 92.94498291 43.53619141 93.95246582 43.71582031 94.99047852 C45.08329615 103.40875075 45.44483563 111.4863403 45 120 C3.87876219 120.77102321 -35.00900752 113.95684168 -72.0625 95.6875 C-72.72354736 95.36217285 -73.38459473 95.0368457 -74.06567383 94.70166016 C-77.14266822 93.13363522 -79.76116796 91.66527624 -82 89 C-80.9584375 88.46632813 -79.916875 87.93265625 -78.84375 87.3828125 C-43.11903446 68.89610258 -14.66385155 47.91029733 -1.7265625 8.6484375 C-0.94048281 5.78305026 -0.43924998 2.93694596 0 0 Z M3 7 C2.443125 8.5159375 2.443125 8.5159375 1.875 10.0625 C1.25080303 11.70863806 0.62565292 13.35441476 0 15 C-0.62068359 16.67255859 -0.62068359 16.67255859 -1.25390625 18.37890625 C-6.39399223 31.9583968 -12.63914244 43.60500452 -23 54 C-23.50345947 54.53189941 -24.00691895 55.06379883 -24.52563477 55.61181641 C-28.91593872 60.17289291 -33.63802038 63.86898809 -38.8125 67.5 C-39.61075195 68.06678467 -40.40900391 68.63356934 -41.23144531 69.2175293 C-42.79703877 70.32795276 -44.36450619 71.43574012 -45.93408203 72.54052734 C-47.60011087 73.71749738 -49.25333088 74.91258682 -50.90234375 76.11328125 C-57.61457954 80.97155507 -64.76406024 84.98582593 -72 89 C-72 89.66 -72 90.32 -72 91 C-50.52589448 100.99943977 -28.54228016 108.72576177 -5.12695312 112.64160156 C-3.23101055 112.96107398 -1.34143651 113.31783045 0.546875 113.6796875 C13.84374228 115.91625734 27.55950214 115.1759759 41 115 C40.31153677 91.32137182 40.31153677 91.32137182 30.10546875 70.7734375 C22.04994819 61.11876907 19.69698927 52.32464115 17.70703125 40.19140625 C15.62974183 27.62252652 11.90260818 17.09777712 4 7 C3.67 7 3.34 7 3 7 Z " fill="#EBE9E9" transform="translate(217,369)"/>
<path d="M0 0 C4.52951487 2.36770095 6.39380743 5.89494788 8.28125 10.4765625 C9.46176468 14.62119555 9.51637277 18.7335758 9 23 C8.67 23.33 8.34 23.66 8 24 C8.928125 24.556875 9.85625 25.11375 10.8125 25.6875 C13.97358548 27.98083652 15.38425136 29.49921129 17 33 C17 33.99 17 34.98 17 36 C3.72939342 39.17423731 3.72939342 39.17423731 -2.5625 35.5 C-10.69048636 29.5802718 -14.77654477 22.3520597 -16.421875 12.46484375 C-16.68106186 8.15226238 -16.39832956 6.51675186 -13.6875 3 C-9.40114475 -0.18984577 -5.22717647 -0.69695686 0 0 Z " fill="#F0F0F0" transform="translate(287,447)"/>
<path d="M0 0 C6.20845438 5.47599628 11.77193562 12.98520639 14 20.9375 C11.12979087 18.39846885 9.2266875 15.74047132 7.25 12.5 C2.43016772 5.14341389 -4.64495027 2.01589485 -13 -0.0625 C-16.49105819 -0.48092917 -19.92414455 -0.54022926 -23.4375 -0.5 C-24.36401367 -0.49242676 -25.29052734 -0.48485352 -26.24511719 -0.47705078 C-32.85922298 -0.31712623 -38.27853328 0.41411089 -44 3.9375 C-44.81855469 4.43121094 -45.63710938 4.92492187 -46.48046875 5.43359375 C-49.42339695 7.30976896 -52.19546587 9.10595513 -54.62890625 11.62109375 C-56 12.9375 -56 12.9375 -58 12.9375 C-58.28875 13.576875 -58.5775 14.21625 -58.875 14.875 C-60 16.9375 -60 16.9375 -62 17.9375 C-57.18033704 7.71802946 -48.66667768 2.59321969 -38.375 -1.375 C-33.89252585 -2.9116661 -29.71793288 -3.70642959 -25 -4.0625 C-38.60089711 -3.76799239 -51.24852775 1.8341884 -61.2890625 11.03515625 C-68.92879521 19.14700728 -72.79093776 27.66518226 -73.5625 38.6875 C-73.68818359 40.44320312 -73.68818359 40.44320312 -73.81640625 42.234375 C-73.87699219 43.12640625 -73.93757813 44.0184375 -74 44.9375 C-77.28336843 40.01244736 -76.51083773 34.69250733 -76 28.9375 C-73.32660008 16.99524647 -66.08292874 5.86599293 -56 -1.0625 C-36.7075156 -12.41220608 -18.92159971 -13.0085998 0 0 Z " fill="#E4E4E4" transform="translate(94,194.0625)"/>
<path d="M0 0 C2.25 -0.3125 2.25 -0.3125 5 0 C7.99540173 2.75253132 8.94165078 4.22687285 9.25 8.3125 C9.1675 9.199375 9.085 10.08625 9 11 C7.68 10.01 6.36 9.02 5 8 C5.495 8.845625 5.99 9.69125 6.5 10.5625 C8.14747708 14.33796832 8.24430947 16.92817548 8 21 C8.66 21 9.32 21 10 21 C9.67 23.31 9.34 25.62 9 28 C7 25 7 25 7 21 C6.29875 21.515625 5.5975 22.03125 4.875 22.5625 C1.39112465 24.30443767 -0.2983569 23.94693195 -4 23 C-3.67 24.32 -3.34 25.64 -3 27 C-1.35 27.33 0.3 27.66 2 28 C2.33 28.99 2.66 29.98 3 31 C2.01 31.33 1.02 31.66 0 32 C0.33 32.66 0.66 33.32 1 34 C3.87866256 34.13478935 3.87866256 34.13478935 7 33 C8.74719343 30.49568941 9.90004088 27.84048268 11 25 C11.99 25.33 12.98 25.66 14 26 C13.40361667 27.27450447 12.79752584 28.54446877 12.1875 29.8125 C11.68283203 30.87404297 11.68283203 30.87404297 11.16796875 31.95703125 C9.96599163 34.05948622 8.86965643 35.46604248 7 37 C3.75 37.75 3.75 37.75 0 37 C-3.87983374 33.526552 -7.102648 29.31454763 -8.125 24.125 C-8 21 -8 21 -6.5625 19.0625 C-6.046875 18.711875 -5.53125 18.36125 -5 18 C-4.67 18.99 -4.34 19.98 -4 21 C-3.01 20.67 -2.02 20.34 -1 20 C-1.83208533 12.08638872 -1.83208533 12.08638872 -5 5 C-5 3.68 -5 2.36 -5 1 C-3.68 1.33 -2.36 1.66 -1 2 C-0.67 1.34 -0.34 0.68 0 0 Z " fill="#3F3F3F" transform="translate(263,151)"/>
<path d="M0 0 C0.66 0 1.32 0 2 0 C2.23659907 7.39372092 1.1494146 13.73924898 -0.578125 20.89453125 C-2.15366017 27.77061688 -3.61617014 34.60712778 0 41 C-1.60875 41.0928125 -1.60875 41.0928125 -3.25 41.1875 C-7.01082297 41.67308914 -7.01082297 41.67308914 -9.1875 44 C-11.59980226 47.99277615 -11.66549497 51.23002244 -11.75 55.8125 C-11.77964844 56.60076172 -11.80929687 57.38902344 -11.83984375 58.20117188 C-11.91011293 60.13357446 -11.95737134 62.06679015 -12 64 C-14.05127844 60.92308234 -14.27260872 60.06355001 -14.4140625 56.55078125 C-14.45273437 55.70322266 -14.49140625 54.85566406 -14.53125 53.98242188 C-14.5621875 53.10134766 -14.593125 52.22027344 -14.625 51.3125 C-14.66367187 50.41982422 -14.70234375 49.52714844 -14.7421875 48.60742188 C-14.83640218 46.4051538 -14.92201588 44.20289278 -15 42 C-15.94101562 41.52949219 -16.88203125 41.05898438 -17.8515625 40.57421875 C-20.234375 39.3828125 -22.6171875 38.19140625 -25 37 C-24.01 36.7525 -23.02 36.505 -22 36.25 C-20.66386375 35.84241096 -19.33066579 35.42510873 -18 35 C-17.32839844 34.81308594 -16.65679687 34.62617188 -15.96484375 34.43359375 C-10.82986016 32.54384064 -9.02971753 29.83064752 -6.6875 24.9375 C-3.34430018 16.84295913 -0.96750299 8.70752691 0 0 Z " fill="#424242" transform="translate(286,278)"/>
<path d="M0 0 C9.02681633 -0.69141572 15.67878248 1.17458854 23.25 6.125 C30.11731217 13.30446272 33.16027907 20.22297693 33 30 C30.75664486 27.75664486 29.82859899 25.72060989 28.4375 22.875 C22.01268662 11.11406477 11.69871081 6.39719664 0 1 C0 0.67 0 0.34 0 0 Z " fill="#414141" transform="translate(213,192)"/>
<path d="M0 0 C0.66 0.33 1.32 0.66 2 1 C-0.21635696 4.54617113 -2.5037544 7.58186165 -5.375 10.625 C-14.32610975 20.61783373 -16.62416601 31.01734701 -16 44 C-15.13305822 49.83215378 -12.92926426 55.44371893 -11 61 C-16.99063524 55.64938989 -19.45440281 48.27151307 -20.45703125 40.421875 C-20.88317019 26.09098044 -15.31861421 15.86626562 -5.703125 5.53125 C-3.83406589 3.64893515 -1.94403001 1.80443211 0 0 Z " fill="#E4E4E4" transform="translate(68,249)"/>
<path d="M0 0 C2 3 2 3 3.625 6.625 C9.3460057 18.06701141 18.77824653 24.37497853 30.625 28.375 C32.41291103 28.92893717 34.2033214 29.47519697 36 30 C36 30.33 36 30.66 36 31 C26.30378957 31.74586234 17.18025149 28.78703443 9.6796875 22.5625 C4.4228507 17.67241925 0.45975943 12.28723343 -0.1796875 4.93359375 C-0.18633642 3.28798555 -0.10265106 1.64241691 0 0 Z " fill="#454545" transform="translate(276,336)"/>
<path d="M0 0 C0.67095703 0.58007812 0.67095703 0.58007812 1.35546875 1.171875 C1.96003906 1.69265625 2.56460938 2.2134375 3.1875 2.75 C3.82300781 3.30429687 4.45851563 3.85859375 5.11328125 4.4296875 C7.09701382 6.14246966 7.09701382 6.14246966 9.875 7.875 C14.32703063 12.32703063 13.03863008 19.59219537 13.0625 25.5 C13.04656832 27.66670825 13.02738672 29.83340626 13 32 C10.61161391 29.06529309 9.14520833 26.27362236 7.7734375 22.75390625 C7.185625 21.25053711 7.185625 21.25053711 6.5859375 19.71679688 C6.18632813 18.67587891 5.78671875 17.63496094 5.375 16.5625 C4.96765625 15.52544922 4.5603125 14.48839844 4.140625 13.41992188 C2.40744248 8.95209871 0.82589006 4.73471126 0 0 Z " fill="#B42020" transform="translate(43,313)"/>
<path d="M0 0 C0.66 0.33 1.32 0.66 2 1 C2 1.66 2 2.32 2 3 C2.99 3 3.98 3 5 3 C5 3.66 5 4.32 5 5 C4.01 5 3.02 5 2 5 C2.33 6.32 2.66 7.64 3 9 C4.65 9.33 6.3 9.66 8 10 C8.33 10.99 8.66 11.98 9 13 C8.01 13.33 7.02 13.66 6 14 C6.33 14.66 6.66 15.32 7 16 C9.87866256 16.13478935 9.87866256 16.13478935 13 15 C14.74719343 12.49568941 15.90004088 9.84048268 17 7 C17.99 7.33 18.98 7.66 20 8 C19.40361667 9.27450447 18.79752584 10.54446877 18.1875 11.8125 C17.68283203 12.87404297 17.68283203 12.87404297 17.16796875 13.95703125 C15.96599163 16.05948622 14.86965643 17.46604248 13 19 C9.75 19.75 9.75 19.75 6 19 C2.11865308 15.52519732 -1.11380799 11.33722552 -2.0625 6.125 C-2 3 -2 3 0 0 Z " fill="#484848" transform="translate(257,169)"/>
<path d="M0 0 C0.99 0 1.98 0 3 0 C3.66 1.65 4.32 3.3 5 5 C5.66 5 6.32 5 7 5 C6.14589713 8.20288575 5.47392731 10.49338805 3.1875 12.9375 C0.38934155 14.29660553 -1.08020007 13.89216109 -4 13 C-4 12.34 -4 11.68 -4 11 C-3.34 10.67 -2.68 10.34 -2 10 C-3.39195915 7.2160817 -5.15575779 7.02101003 -8 6 C-8 4.68 -8 3.36 -8 2 C-7.05125 2.04125 -6.1025 2.0825 -5.125 2.125 C-1.89755144 2.34973818 -1.89755144 2.34973818 0 0 Z " fill="#E7E7E7" transform="translate(267,172)"/>
<path d="M0 0 C1.65 1.32 3.3 2.64 5 4 C3.33383155 9.26213961 0.06931631 13.39159587 -3.125 17.8125 C-3.68832031 18.60076172 -4.25164062 19.38902344 -4.83203125 20.20117188 C-6.21677658 22.13746831 -7.60618627 24.07022641 -9 26 C-10 24 -10 24 -9.41088867 21.89282227 C-9.0832251 21.04260498 -8.75556152 20.1923877 -8.41796875 19.31640625 C-8.06283203 18.38892578 -7.70769531 17.46144531 -7.34179688 16.50585938 C-6.96087891 15.53455078 -6.57996094 14.56324219 -6.1875 13.5625 C-5.63352539 12.11133789 -5.63352539 12.11133789 -5.06835938 10.63085938 C-3.59278272 6.81343395 -2.27854933 3.417824 0 0 Z " fill="#E4E4E4" transform="translate(449,369)"/>
<path d="M0 0 C0.66 0.33 1.32 0.66 2 1 C-0.2373818 4.57981088 -2.58092222 7.70020238 -5.4375 10.8125 C-8.61896977 14.33387038 -10.74214043 17.9333377 -12.76171875 22.21484375 C-14 24 -14 24 -16.14453125 24.75390625 C-16.75683594 24.83511719 -17.36914062 24.91632813 -18 25 C-15.04222944 14.81212361 -7.6342639 7.08605878 0 0 Z " fill="#E4E4E4" transform="translate(68,249)"/>
<path d="M0 0 C0 0.33 0 0.66 0 1 C-1.03898437 1.02578125 -2.07796875 1.0515625 -3.1484375 1.078125 C-15.85088273 1.53423538 -27.39509275 4.13977213 -36.62890625 13.68359375 C-38 15 -38 15 -40 15 C-40.28875 15.639375 -40.5775 16.27875 -40.875 16.9375 C-42 19 -42 19 -44 20 C-40.08176307 11.69188652 -34.0918442 7.09296771 -26 3 C-25.154375 2.57203125 -24.30875 2.1440625 -23.4375 1.703125 C-15.45547135 -1.7652565 -8.46116041 -1.05050845 0 0 Z " fill="#D2D2D2" transform="translate(76,192)"/>
<path d="M0 0 C0.66 0.33 1.32 0.66 2 1 C-5.92 8.92 -13.84 16.84 -22 25 C-22.66 24.67 -23.32 24.34 -24 24 C-16.44738134 15.4635733 -8.48510355 7.60826455 0 0 Z " fill="#616161" transform="translate(87,59)"/>
<path d="M0 0 C2.25 -0.3125 2.25 -0.3125 5 0 C7.99540173 2.75253132 8.94165078 4.22687285 9.25 8.3125 C9.1675 9.199375 9.085 10.08625 9 11 C8.401875 10.34 7.80375 9.68 7.1875 9 C5.12498166 6.6626154 5.12498166 6.6626154 2 7 C1.34 4.69 0.68 2.38 0 0 Z " fill="#393939" transform="translate(263,151)"/>
<path d="M0 0 C0.33 0 0.66 0 1 0 C1.13277344 0.95261719 1.26554688 1.90523438 1.40234375 2.88671875 C1.57894531 4.14097656 1.75554687 5.39523437 1.9375 6.6875 C2.11152344 7.92886719 2.28554687 9.17023438 2.46484375 10.44921875 C2.89822897 13.32474548 3.39649282 16.15644813 4 19 C2.68 19.33 1.36 19.66 0 20 C-1.27472414 14.26374136 -2.70914967 5.41829933 0 0 Z " fill="#4E4E4E" transform="translate(189,304)"/>
<path d="M0 0 C-1.08632412 2.25621163 -2.23345965 4.37353544 -3.5625 6.5 C-4.85173947 8.7421556 -5.53347928 10.48078813 -6 13 C-6.66 13 -7.32 13 -8 13 C-8 13.66 -8 14.32 -8 15 C-8.66 14.67 -9.32 14.34 -10 14 C-10 13.34 -10 12.68 -10 12 C-10.99 12.495 -10.99 12.495 -12 13 C-10.49017269 9.57143381 -8.48286031 7.04321784 -6 4.25 C-5.29875 3.45078125 -4.5975 2.6515625 -3.875 1.828125 C-2 0 -2 0 0 0 Z " fill="#D1D1D1" transform="translate(67,240)"/>
<path d="M0 0 C0.66 0 1.32 0 2 0 C2.21432579 6.64409958 1.51233701 12.53205867 0 19 C-0.99 18.34 -1.98 17.68 -3 17 C-2.01 11.39 -1.02 5.78 0 0 Z " fill="#696969" transform="translate(286,278)"/>
<path d="M0 0 C0 0.99 0 1.98 0 3 C-1.50390625 4.17578125 -1.50390625 4.17578125 -3.5625 5.3125 C-7.21962961 7.45230988 -10.31272932 9.83735015 -13.45703125 12.66796875 C-15 14 -15 14 -18 16 C-14.8334636 8.49413595 -7.02268187 3.58605032 0 0 Z " fill="#474747" transform="translate(46,195)"/>
<path d="M0 0 C3.875 1.75 3.875 1.75 5 4 C5.66 3.34 6.32 2.68 7 2 C7 6.29 7 10.58 7 15 C6.34 15 5.68 15 5 15 C4.89042969 14.33613281 4.78085937 13.67226562 4.66796875 12.98828125 C3.78863977 8.09120522 3.00548286 4.09838572 0 0 Z " fill="#A7A7A7" transform="translate(266,157)"/>
<path d="M0 0 C0.33 0.66 0.66 1.32 1 2 C-2.86723631 3.26582219 -6.73151262 3.1118765 -10.75 3.0625 C-11.44738281 3.05798828 -12.14476562 3.05347656 -12.86328125 3.04882812 C-14.57555803 3.0371002 -16.28779033 3.01916653 -18 3 C-18 2.67 -18 2.34 -18 2 C-15.37638987 1.47109454 -12.75151775 0.95157912 -10.125 0.4375 C-9.37863281 0.28603516 -8.63226563 0.13457031 -7.86328125 -0.02148438 C-2.2265625 -1.11328125 -2.2265625 -1.11328125 0 0 Z " fill="#5C5C5C" transform="translate(369,339)"/>
<path d="M0 0 C0.33 0 0.66 0 1 0 C1.268125 1.134375 1.53625 2.26875 1.8125 3.4375 C2.95849272 8.04620455 4.44306645 12.51603139 6 17 C1.74016783 13.50085215 -0.15672955 9.07879837 -2 4 C-2 3.34 -2 2.68 -2 2 C-1.34 2 -0.68 2 0 2 C0 1.34 0 0.68 0 0 Z " fill="#CECECE" transform="translate(51,293)"/>
<path d="M0 0 C0.99 0.33 1.98 0.66 3 1 C2.43224464 2.29858939 1.84508337 3.58870441 1.25 4.875 C0.92515625 5.59429687 0.6003125 6.31359375 0.265625 7.0546875 C-1 9 -1 9 -5 11 C-3.35 7.37 -1.7 3.74 0 0 Z " fill="#424242" transform="translate(274,176)"/>
<path d="M0 0 C0.33 0.99 0.66 1.98 1 3 C-0.32 4.32 -1.64 5.64 -3 7 C-3.99 6.67 -4.98 6.34 -6 6 C-2.25 1.125 -2.25 1.125 0 0 Z " fill="#DDDDDD" transform="translate(59,260)"/>
<path d="M0 0 C0.99 0 1.98 0 3 0 C2.67 2.64 2.34 5.28 2 8 C1.34 8 0.68 8 0 8 C0 5.36 0 2.72 0 0 Z " fill="#E1E1E1" transform="translate(274,332)"/>
<path d="M0 0 C0.33 0 0.66 0 1 0 C0.67 3.3 0.34 6.6 0 10 C-0.99 9.34 -1.98 8.68 -3 8 C-1.125 1.125 -1.125 1.125 0 0 Z " fill="#646464" transform="translate(134,421)"/>
<path d="M0 0 C0.66 0.33 1.32 0.66 2 1 C2 1.66 2 2.32 2 3 C-0.31 4.32 -2.62 5.64 -5 7 C-3.70700306 4.11562221 -2.34058637 2.12780579 0 0 Z " fill="#6A6A6A" transform="translate(322,237)"/>
<path d="M0 0 C-3.96 1.98 -3.96 1.98 -8 4 C-8.33 3.01 -8.66 2.02 -9 1 C-2.25 -1.125 -2.25 -1.125 0 0 Z " fill="#656565" transform="translate(325,404)"/>
<path d="M0 0 C0.99 0.33 1.98 0.66 3 1 C2.38125 1.2475 1.7625 1.495 1.125 1.75 C-1.37818306 3.22246063 -1.83045281 4.41028837 -3 7 C-3.99 7.495 -3.99 7.495 -5 8 C-3.62845496 5.04590299 -2.01136276 2.55991624 0 0 Z " fill="#B8B8B8" transform="translate(37,204)"/>
</svg>
